<?xml version="1.0" encoding="UTF-8"?>
<svg id="Layer_2" data-name="Layer 2" xmlns="http://www.w3.org/2000/svg" viewBox="0 0 25.56 27.5">
  <defs>
    <style>
      .cls-1 {
        fill: #f15a24;
      }
    </style>
  </defs>
  <g id="Layer_1-2" data-name="Layer 1">
    <path class="cls-1" d="M2.18.02l21.07-.02c2.84.29,2.28,2.65,2.26,4.71-.01,1.3.11,2.86,0,4.13-.13,1.44-1.38,1.58-2.41.83-.68-.49-.95-.89-1.83-1.18-4.35-1.43-8.9,2.56-7.27,7.07,1.08,2.97,4.77,4.49,7.66,3.22,1.05-.46,1.69-1.7,2.94-1.45.59.12.87.78.92,1.32.1,1.29-.01,2.81,0,4.13.02,2.06.58,4.42-2.26,4.71H2.32c-1.23-.09-2.19-.84-2.32-2.11V2.06C.14.89,1.02.14,2.18.02Z"/>
  </g>
</svg>